# AST/ASF file generated using VICON BodyLanguage
# -----------------------------------------------
:version 1.10
:name VICON
:units
  mass 1.0
  length 0.45
  angle deg
:documentation
   .ast/.asf automatically generated from VICON data using
   VICON BodyBuilder and BodyLanguage model FoxedUp or BRILLIANT.MOD
:root
   order TX TY TZ RX RY RZ
   axis XYZ
   position 0 0 0  
   orientation 0 0 0 
:bonedata
  begin
     id 1 
     name lhipjoint
     direction 0.576517 -0.752066 0.319413 
     length 2.45433 
     axis 0 0 0  XYZ
  end
  begin
     id 2 
     name lfemur
     direction 0.34202 -0.939693 0  
     length 7.54459  
     axis 0 0 20  XYZ
    dof rx ry rz
    limits (-160.0 20.0)
           (-70.0 70.0)
           (-60.0 70.0)
  end
  begin
     id 3 
     name ltibia
     direction 0.34202 -0.939693 0   
     length 7.73986   
     axis 0 0 20   XYZ
    dof rx
    limits (-10.0 170.0)
  end
  begin
     id 4 
     name lfoot
     direction 0.090693 -0.249177 0.964202   
     length 2.28437   
     axis -90 7.62852e-016 20   XYZ
    dof rx rz
    limits (-45.0 90.0)
           (-70.0 20.0)
  end
  begin
     id 5 
     name ltoes
     direction 1.5356e-011 -4.21928e-011 1   
     length 1.14243   
     axis -90 7.62852e-016 20   XYZ
    dof rx
    limits (-90.0 20.0)
  end
  begin
     id 6 
     name rhipjoint
     direction -0.573937 -0.753736 0.320122   
     length 2.44889  
     axis 0 0 0  XYZ 
  end
  begin
     id 7 
     name rfemur
     direction -0.34202 -0.939693 0   
     length 7.50166   
     axis 0 0 -20   XYZ
    dof rx ry rz
    limits (-160.0 20.0)
           (-70.0 70.0)
           (-70.0 60.0)
  end
  begin
     id 8 
     name rtibia
     direction -0.34202 -0.939693 0   
     length 7.54266   
     axis 0 0 -20   XYZ
    dof rx
    limits (-10.0 170.0)
 end
 begin
     id 9 
     name rfoot
     direction -0.114017 -0.31326 0.942798   
     length 2.34212  
     axis -90 -7.62852e-016 -20   XYZ
    dof rx rz
    limits (-45.0 90.0)
           (-20.0 70.0)
  end
  begin
     id 10 
     name rtoes
     direction -1.53557e-011 -4.21867e-011 1   
     length 1.16246   
     axis -90 -7.62852e-016 -20   XYZ
    dof rx
    limits (-90.0 20.0)
  end
  begin
     id 11 
     name lowerback
     direction -0.0228371 0.999155 -0.034167   
     length 2.0537   
     axis 0 0 0   XYZ
    dof rx ry rz
    limits (-20.0 45.0)
           (-30.0 30.0)
           (-30.0 30.0)
  end
  begin
     id 12 
     name upperback
     direction 0.0198981 0.999794 0.00389455   
     length 2.05302   
     axis 0 0 0   XYZ
    dof rx ry rz
    limits (-20.0 45.0)
           (-30.0 30.0)
           (-30.0 30.0)
  end
  begin
     id 13 
     name thorax
     direction 0.0304566 0.99935 0.0192987   
     length 2.05315   
     axis 0 0 0   XYZ
    dof rx ry rz
    limits (-20.0 45.0)
           (-30.0 30.0)
           (-30.0 30.0)
  end
  begin
     id 14 
     name lowerneck
     direction -0.0196762 0.99417 0.106017   
     length 1.82056   
     axis 0 0 0   XYZ
    dof rx ry rz
    limits (-20.0 45.0)
           (-30.0 30.0)
           (-30.0 30.0)
  end
  begin
     id 15 
     name upperneck
     direction 0.00517787 0.9802 -0.197944   
     length 1.83835   
     axis 0 0 0   XYZ
    dof rx ry rz
    limits (-20.0 45.0)
           (-30.0 30.0)
           (-30.0 30.0)
  end
  begin
     id 16
     name head
     direction 0.00211419 0.996945 -0.078081  
     length 1.85629  
     axis 0 0 0   XYZ
    dof rx ry rz
    limits (-20.0 45.0)
           (-30.0 30.0)
           (-30.0 30.0)
  end
  begin
     id 17 
     name lclavicle
     direction 0.930001 0.365811 -0.0357824  
     length 3.81961  
     axis 0 0 0   XYZ
    dof ry rz
    limits (-20.0 10.0)
           (0.0 20.0)
  end
  begin
     id 18 
     name lhumerus
     direction 1 -4.48968e-011 -3.06644e-027   
     length 5.14507   
     axis 180 -30 -90   XYZ
    dof rx ry rz
    limits (-60.0 90.0)
           (-90.0 90.0)
           (-90.0 90.0)
  end
  begin
     id 19
     name lradius
     direction 1 -4.48965e-011 9.06925e-028   
     length 3.50646   
     axis 180 -30 -90   XYZ
    dof rx
    limits (-10.0 170.0)
  end
  begin
     id 20
     name lwrist
     direction 1 -4.48957e-011 1.03922e-027   
     length 1.75323   
     axis -2.56395e-016 90 90   XYZ
    dof ry
    limits (-180.0 0.0)
 end
  begin
     id 21 
     name lhand
     direction 1 -4.48967e-011 2.08017e-027   
     length 0.629969   
     axis -1.32723e-015 90 90   XYZ
    dof rx rz
    limits (-90.0 90.0)
           (-45.0 45.0)
  end
  begin
     id 22 
     name lfingers
     direction 1 -4.49089e-011 4.20095e-027   
     length 0.507897   
     axis -2.6545e-015 90 90   XYZ
    dof rx
    limits (0.0 90.0)
  end
  begin
     id 23
     name lthumb
     direction 0.707107 -6.35001e-011 0.707107   
     length 0.729241   
     axis -90 45 5.05613e-014   XYZ
    dof rx rz
    limits (-45.0 45.0)
           (-45.0 45.0)
  end
  begin
     id 24 
     name rclavicle
     direction -0.881882 0.464123 -0.0829113   
     length 3.47515  
     axis 0 0 0   XYZ 
    dof ry rz
    limits (-10.0 20.0)
           (-20.0 0.0)
  end
  begin
     id 25 
     name rhumerus
     direction -1 -4.48961e-011 -1.55672e-027  
     length 5.232   
     axis 180 30 90   XYZ
    dof rx ry rz
    limits (-90.0 60.0)
           (-90.0 90.0)
           (-90.0 90.0)
  end
  begin
     id 26 
     name rradius
     direction -1 -4.48963e-011 6.18178e-029   
     length 3.65641   
     axis 180 30 90   XYZ
    dof rx
    limits (-10.0 170.0)
  end
  begin
     id 27 
     name rwrist
     direction -1 -4.48982e-011 1.04136e-027   
     length 1.8282   
     axis -2.56395e-016 -90 -90   XYZ
    dof ry
    limits (-180.0 0.0)
  end
  begin
     id 28
     name rhand
     direction -1 -4.48929e-011 2.07378e-027   
     length 0.656807   
     axis -1.32723e-015 -90 -90   XYZ
    dof rx rz
    limits (-90.0 90.0)
           (-45.0 45.0)
  end
  begin
     id 29
     name rfingers
     direction -1 -4.489e-011 4.13816e-027   
     length 0.529535   
     axis -2.6545e-015 -90 -90   XYZ
    dof rx
    limits (0.0 90.0)
  end
  begin
     id 30
     name rthumb
     direction -0.707107 -6.34843e-011 0.707107   
     length 0.760309   
     axis -90 -45 -5.05613e-014   XYZ
    dof rx rz
    limits (-45.0 45.0)
           (-45.0 45.0)
  end
:hierarchy
  begin
    root lhipjoint rhipjoint lowerback
    lhipjoint lfemur
    lfemur ltibia
    ltibia lfoot
    lfoot ltoes
    rhipjoint rfemur
    rfemur rtibia
    rtibia rfoot
    rfoot rtoes
    lowerback upperback
    upperback thorax
    thorax lowerneck lclavicle rclavicle
    lowerneck upperneck
    upperneck head
    lclavicle lhumerus
    lhumerus lradius
    lradius lwrist
    lwrist lhand lthumb
    lhand lfingers
    rclavicle rhumerus
    rhumerus rradius
    rradius rwrist
    rwrist rhand rthumb
    rhand rfingers
  end

#!OML:ASF H:\ManfredETheater\Project 1\Capture day 1\Session 1\subject.ASF
:FULLY-SPECIFIED
:DEGREES
1
root -1.57719 15.0902 40.228 -158.094 2.38185 -175.899
lowerback 15.7098 0.996536 5.71291
upperback -2.22372 2.70633 1.44469
thorax -11.1224 1.01005 -2.33274
lowerneck -18.972 -2.28696 -2.12144
upperneck 3.31351 -2.94259 0.811123
head 4.0327 -1.57117 0.324147
rclavicle -1.53064e-014 -1.74931e-014
rhumerus -40.3642 25.1353 -83.8221
rradius 117.166
rwrist -5.39959
rhand -18.942 5.31613
rfingers 7.12502
rthumb 7.36109 -24.5358
lclavicle -1.53064e-014 -1.74931e-014
lhumerus -92.4704 -18.6573 90.4923
lradius 107.565
lwrist 9.12984
lhand -17.5152 -14.7345
lfingers 7.12502
lthumb 8.73821 15.0647
rfemur 19.5168 4.99807 25.5328
rtibia 12.3149
rfoot 40.872 -5.25914
rtoes -24.5965
lfemur -82.7149 7.1046 -20.1633
ltibia 70.737
lfoot -8.36439 -9.1266
ltoes -19.5028
2
root -1.56204 15.1054 39.6943 -159.098 0.739107 -176.329
lowerback 16.3069 0.397181 6.02332
upperback -1.84591 1.99108 1.33713
thorax -11.0885 0.657998 -2.46327
lowerneck -19.4036 -2.4069 -2.08248
upperneck 3.50089 -3.12638 1.05106
head 4.16213 -1.64618 0.369969
rclavicle 8.74653e-015 1.70955e-014
rhumerus -41.8261 23.9777 -84.7545
rradius 114.997
rwrist -4.71203
rhand -18.259 4.52205
rfingers 7.12502
rthumb 8.02036 -25.3058
lclavicle 8.74653e-015 1.70955e-014
lhumerus -90.3987 -18.1306 90.2761
lradius 106.472
lwrist 9.30111
lhand -18.7706 -14.5817
lfingers 7.12502
lthumb 7.52656 15.2644
rfemur 16.7726 3.00711 25.7522
rtibia 20.6567
rfoot 36.4289 -4.95967
rtoes -29.0048
lfemur -79.9559 6.2661 -20.8507
ltibia 71.7978
lfoot -7.75988 -8.62292
ltoes -21.0162
3
root -1.53629 15.1378 39.1992 -157.976 1.4877 -175.701
lowerback 15.5135 0.82505 5.6298
upperback -2.30658 2.4396 1.39803
thorax -11.1223 0.883845 -2.26655
lowerneck -18.8973 -2.42394 -2.19907
upperneck 3.36958 -3.14417 1.36399
head 4.05262 -1.6329 0.491588
rclavicle -7.95139e-015 -2.66371e-014
rhumerus -43.8559 22.7643 -85.9253
rradius 112.341
rwrist -3.46193
rhand -17.9431 3.9109
rfingers 7.12502
rthumb 8.32529 -25.905
lclavicle -7.95139e-015 -2.66371e-014
lhumerus -88.5771 -17.2943 90.4018
lradius 105.423
lwrist 10.1102
lhand -20.0778 -14.1816
lfingers 7.12502
lthumb 6.2647 15.7057
rfemur 11.4785 2.80543 25.538
rtibia 28.4476
rfoot 30.8468 -1.47758
rtoes -29.1532
lfemur -79.0517 7.81402 -21.397
ltibia 72.3747
lfoot -7.63788 -8.15053
ltoes -5.91598
4
root -1.51666 15.1855 38.6682 -158.374 0.578224 -175.769
lowerback 15.7601 0.546884 5.80148
upperback -2.13345 2.10473 1.32241
thorax -11.0894 0.715603 -2.36992
lowerneck -19.0486 -2.5009 -2.2029
upperneck 3.30418 -3.28056 1.70711
head 4.06375 -1.68227 0.585521
rclavicle -5.76476e-015 -1.15295e-014
rhumerus -45.4501 20.8046 -86.9115
rradius 109.337
rwrist -2.53975
rhand -17.5641 3.22317
rfingers 7.12502
rthumb 8.69101 -26.5779
lclavicle -5.76476e-015 -1.15295e-014
lhumerus -85.99 -16.8923 90.4623
lradius 104.119
lwrist 11.089
lhand -21.4879 -13.8411
lfingers 7.12502
lthumb 4.90323 16.0822
rfemur 8.60918 1.14657 25.641
rtibia 34.7791
rfoot 26.5441 0.177745
rtoes -36.5801
lfemur -76.3011 7.73344 -21.7743
ltibia 72.7483
lfoot -12.6001 -7.33104
ltoes -10.2678
5
root -1.49044 15.2685 38.1412 -158.657 -0.144221 -176.218
lowerback 16.0809 0.262442 5.47308
upperback -2.01587 1.65939 1.21029
thorax -11.1829 0.517539 -2.20337
lowerneck -19.0112 -2.48092 -2.25417
upperneck 3.05227 -3.27724 1.95017
head 3.98487 -1.67421 0.671503
rclavicle 5.96354e-016 1.78906e-014
rhumerus -46.9392 18.6423 -87.861
rradius 105.211
rwrist -2.91562
rhand -18.3747 2.4302
rfingers 7.12502
rthumb 7.90867 -27.4019
lclavicle 5.96354e-016 1.78906e-014
lhumerus -82.6058 -16.4536 90.5335
lradius 102.095
lwrist 11.8001
lhand -21.2983 -13.5527
lfingers 7.12502
lthumb 5.0863 16.3662
rfemur 4.89114 -0.293082 25.5324
rtibia 41.2634
rfoot 24.3938 -1.6168
rtoes -32.7433
lfemur -73.3143 7.42601 -22.185
ltibia 72.5118
lfoot -15.7755 -8.36371
ltoes -1.75258
6
root -1.46529 15.3043 37.6306 -158.783 -0.725841 -176.591
lowerback 16.2821 0.157954 5.11403
upperback -1.96775 1.29885 1.10609
thorax -11.2703 0.300821 -2.01447
lowerneck -19.0108 -2.48549 -2.28412
upperneck 2.8997 -3.30463 2.17837
head 3.94272 -1.67948 0.74569
rclavicle -1.98785e-016 -2.38542e-015
rhumerus -48.2942 16.5709 -88.4695
rradius 101.666
rwrist -2.90828
rhand -18.6021 1.78966
rfingers 7.12502
rthumb 7.68924 -28.0505
lclavicle -1.98785e-016 -2.38542e-015
lhumerus -79.6567 -16.0042 90.6146
lradius 100.334
lwrist 12.4191
lhand -21.6786 -13.3235
lfingers 7.12502
lthumb 4.71915 16.604
rfemur 1.5032 -1.56099 25.3477
rtibia 47.3032
rfoot 21.2764 -1.87878
rtoes -33.2584
lfemur -70.7483 7.38636 -22.6618
ltibia 72.356
lfoot -18.0864 -8.09359
ltoes 2.15552
7
root -1.43819 15.3364 37.1263 -158.909 -1.29325 -177.197
lowerback 16.5467 -0.0576103 4.48758
upperback -1.91209 0.892855 0.971291
thorax -11.3946 0.146109 -1.70789
lowerneck -19.0053 -2.46407 -2.30425
upperneck 2.69789 -3.29846 2.35389
head 3.88265 -1.67341 0.805155
rclavicle -6.85807e-015 -6.95746e-015
rhumerus -49.4872 14.3721 -88.8484
rradius 97.8492
rwrist -3.14577
rhand -19.0206 1.19288
rfingers 7.12502
rthumb 7.28529 -28.6617
lclavicle -6.85807e-015 -6.95746e-015
lhumerus -76.496 -15.5925 90.7221
lradius 98.3748
lwrist 12.9399
lhand -21.8622 -13.1209
lfingers 7.12502
lthumb 4.54185 16.8105
rfemur -2.0999 -2.84055 24.9704
rtibia 53.3975
rfoot 18.2055 -2.33511
rtoes -33.3132
lfemur -68.169 7.18444 -23.2039
ltibia 72.082
lfoot -20.387 -7.82649
ltoes 5.28929
8
root -1.40954 15.3628 36.6275 -159.123 -1.94183 -178.131
lowerback 16.9442 -0.324148 3.59713
upperback -1.8183 0.359491 0.789812
thorax -11.5531 -0.0528926 -1.26615
lowerneck -19.0085 -2.42078 -2.31132
upperneck 2.44895 -3.26468 2.46858
head 3.8072 -1.65947 0.846127
rclavicle 4.87022e-015 -7.95139e-015
rhumerus -50.4962 12.1028 -88.9655
rradius 93.7914
rwrist -3.63479
rhand -19.5972 0.633633
rfingers 7.12502
rthumb 6.72871 -29.2395
lclavicle 4.87022e-015 -7.95139e-015
lhumerus -73.1492 -15.2217 90.8572
lradius 96.2328
lwrist 13.295
lhand -21.9571 -12.9751
lfingers 7.12502
lthumb 4.45022 16.9582
rfemur -5.70297 -4.23228 24.3255
rtibia 59.2612
rfoot 15.2576 -3.01495
rtoes -33.1392
lfemur -65.5324 6.68319 -23.8533
ltibia 71.8707
lfoot -22.6129 -7.60521
ltoes 6.91061
9
root -1.37975 15.3773 36.1369 -159.358 -2.5873 -179.376
lowerback 17.4205 -0.600158 2.4112
upperback -1.70508 -0.263472 0.560571
thorax -11.7233 -0.276316 -0.677955
lowerneck -18.999 -2.35861 -2.32141
upperneck 2.14709 -3.2052 2.54137
head 3.71205 -1.63761 0.87712
rclavicle 7.8023e-015 -8.74653e-015
rhumerus -51.3283 9.82843 -88.8134
rradius 89.5071
rwrist -4.31568
rhand -20.307 0.139751
rfingers 7.12502
rthumb 6.0434 -29.7541
lclavicle 7.8023e-015 -8.74653e-015
lhumerus -69.6597 -14.8769 91.0305
lradius 93.9458
lwrist 13.4511
lhand -22.0781 -12.9174
lfingers 7.12502
lthumb 4.33333 17.0183
rfemur -9.4527 -5.66277 23.3654
rtibia 65.0091
rfoot 12.2592 -3.75264
rtoes -32.5919
lfemur -62.9222 5.93813 -24.644
ltibia 71.6807
lfoot -24.4757 -7.55842
ltoes 8.07606
10
root -1.34996 15.3853 35.6516 -159.614 -3.23912 -180.883
lowerback 17.971 -0.878827 0.995307
upperback -1.57063 -0.963449 0.289742
thorax -11.8898 -0.52318 0.0259457
lowerneck -18.9791 -2.28679 -2.34204
upperneck 1.80387 -3.13228 2.59764
head 3.60205 -1.61208 0.906019
rclavicle -8.94531e-016 -3.57812e-015
rhumerus -52.0107 7.58629 -88.3911
rradius 85.0591
rwrist -5.15397
rhand -21.0146 -0.359541
rfingers 7.12502
rthumb 5.36023 -30.2717
lclavicle -8.94531e-016 -3.57812e-015
lhumerus -66.0593 -14.5608 91.2461
lradius 91.5677
lwrist 13.3855
lhand -22.3383 -12.9561
lfingers 7.12502
lthumb 4.0821 16.9845
rfemur -13.318 -7.13727 22.1115
rtibia 70.5399
rfoot 9.20179 -4.44767
rtoes -32.144
lfemur -60.2945 4.97599 -25.5589
ltibia 71.5083
lfoot -26.0853 -7.49882
ltoes 8.09834
11
root -1.32188 15.3853 35.1709 -159.875 -3.91073 -182.536
lowerback 18.5657 -1.15975 -0.51376
upperback -1.42751 -1.71604 -0.00157555
thorax -12.0421 -0.791038 0.785516
lowerneck -18.9325 -2.21061 -2.37992
upperneck 1.43846 -3.05204 2.66618
head 3.48161 -1.58338 0.942326
rclavicle 3.18055e-015 -1.39149e-015
rhumerus -52.5925 5.43291 -87.7313
rradius 80.4708
rwrist -6.07252
rhand -21.6924 -0.899843
rfingers 7.12502
rthumb 4.70584 -30.8276
lclavicle 3.18055e-015 -1.39149e-015
lhumerus -62.4119 -14.264 91.5048
lradius 89.1832
lwrist 13.0847
lhand -22.8003 -13.0896
lfingers 7.12502
lthumb 3.63598 16.8591
rfemur -17.3042 -8.62511 20.679
rtibia 75.7831
rfoot 6.05954 -5.14775
rtoes -31.5822
lfemur -57.6701 3.85407 -26.5179
ltibia 71.3658
lfoot -27.5196 -7.7108
ltoes 7.42385
